PathFileType	4	(X/Y/Z)	pose_F01_0-92.trc
DataRate	CameraRate	NumFrames	NumMarkers	Units	OrigDataRate	OrigDataStartFrame	OrigNumFrames
30	30	6	21	m	30	23	92
Frame#	Time	CHip			RHip			RKnee			RAnkle			RBigToe			RSmallToe			RHeel			LHip			LKnee			LAnkle			LBigToe			LSmallToe			LHeel			Neck			Nose			RShoulder			RElbow			RWrist			LShoulder			LElbow			LWrist			
		X1	Y1	Z1	X2	Y2	Z2	X3	Y3	Z3	X4	Y4	Z4	X5	Y5	Z5	X6	Y6	Z6	X7	Y7	Z7	X8	Y8	Z8	X9	Y9	Z9	X10	Y10	Z10	X11	Y11	Z11	X12	Y12	Z12	X13	Y13	Z13	X14	Y14	Z14	X15	Y15	Z15	X16	Y16	Z16	X17	Y17	Z17	X18	Y18	Z18	X19	Y19	Z19	X20	Y20	Z20	X21	Y21	Z21	
23	0.7666666666666667	-0.17239654116502467	1.8236760245601733	-0.575611568579407	-0.19219628846632258	1.820842022317761	-0.5187149591478926	-0.19924387198599622	1.6914358478918043	-0.5260877519966181	-0.19431863584167727	1.5616875374204682	-0.509104287877033	-0.23536274763899492	1.5293791808615238	-0.5337561341846991	-0.2287711178989502	1.535217791292669	-0.5009727569185167	-0.1804880434619042	1.5484152006077823	-0.5008506833104749	-0.15681574469370502	1.8267058184048548	-0.6310769837911013	-0.16860376082663683	1.6977298014076696	-0.6330266429156667	-0.16523780307900118	1.5668851042473233	-0.6123089038569656	-0.206983113846885	1.5310116942057523	-0.6374748367535656	-0.19230059987953182	1.5368013128748734	-0.6524747459353762	-0.1558900102631072	1.5532042993799777	-0.5991917513290834	-0.16791318392438262	1.980703804023806	-0.6067083415962848	-0.21443252556146575	2.0287336824824584	-0.6350463853119247	-1.77514999089082	1.8893386692423197	1.2174881914419469	-0.20663428998674044	1.8930915907251764	-0.49381815765876447	-0.224892397752974	1.8313854790751325	-0.5105659265637481	-0.14079973369103435	1.9840410517104317	-0.6927387860380363	-0.11694767276650612	1.9096929393881938	-0.7151439915909236	-0.18359714178751294	1.9224162767527793	-0.6907380189613174
24	0.8	-0.17242851768313214	1.822233202098801	-0.575179343367199	-0.19137966441925236	1.819576735834934	-0.5151146370962859	-0.20121128603115246	1.6913323950064991	-0.5239287049761033	-0.19440129363072547	1.5619866100559752	-0.5089926114634151	-0.23561845286955654	1.5310901612033168	-0.5335358663190283	-0.2287711178989502	1.535217791292669	-0.5009727569185167	-0.18091514924328073	1.5500994699760484	-0.5007379528861503	-0.1539626599158783	1.8252154909396605	-0.6298632382989712	-0.1691177966320669	1.701491579352707	-0.6329864162799523	-0.16265379202630345	1.5683511174618534	-0.6152516006397826	-0.19639555438568754	1.5347359722895222	-0.6482105614232044	-0.2977451065246213	1.4918800095321543	-1.0954672409777828	-0.15344150366200932	1.5574439296303437	-0.6024201357937157	-0.16807600700223957	1.9790970637763028	-0.6065810532989441	-0.21328179100950642	2.0272941505476667	-0.6399008579093598	-1.7751305759987985	1.8891817304405645	1.2175124726827053	-0.20950467982109364	1.8912654582451465	-0.4945051549754054	-0.22641096363647217	1.823567825197214	-0.5159887778288018	-0.14013118753793488	1.9829156895803557	-0.6898047296949753	-0.1309208364194745	1.9131022202769035	-0.7250386669148021	-0.18748580016902533	1.9400954662383079	-0.6884975402711819
25	0.8333333333333334	-0.1697675413724624	1.8251583598586985	-0.5746255420495995	-0.19034612894595546	1.822146169109439	-0.5123959791277589	-0.19936980220872796	1.6927891550218437	-0.5259931703782967	-0.19467554056532474	1.5632118169648501	-0.4998073261283857	-0.2355900195461236	1.5313781776034048	-0.5330410640636831	-0.2287711178989502	1.535217791292669	-0.5009727569185167	-0.1812437876181852	1.5519785627246452	-0.4998819739381568	-0.15193361022310858	1.829468394853739	-0.632578817933444	-0.1691558320712917	1.7080307374818806	-0.6337389119921358	-0.14692152065016165	1.5800393428923978	-0.6066322007870648	-0.173685427568758	1.5444009516681325	-0.6430042473875024	-0.15916492320302328	1.5549416263065268	-0.6585919325669689	-0.14019126337347373	1.5700701276150482	-0.6042733288269614	-0.16655435759834403	1.9824461289147837	-0.6121265544647745	-0.21128668931036873	2.025826575891725	-0.642246030987912	-1.773856237621668	1.8892868472299738	1.215622573569737	-0.20538995481865935	1.8933187030611414	-0.4990312250725702	-0.23182046739981355	1.8243206182466156	-0.535930299627584	-0.137774100027596	1.9843432593827104	-0.6921855561277036	-0.13831667627411287	1.9134403557138018	-0.7220096427194524	-0.18508374888380097	1.9574666220900099	-0.6844633578983714
26	0.8666666666666667	-0.16821725819004582	1.825007627311131	-0.5802392879559592	-0.18692361429765944	1.8214456351212387	-0.5203293647014618	-0.19946554297073485	1.6938493181962468	-0.5260689324256742	-0.1934911778478537	1.5627601723571762	-0.4964254735436258	-0.23545694516974758	1.5308791230646774	-0.5331227358974004	-0.2287711178989502	1.535217791292669	-0.5009727569185167	-0.17976158949048227	1.5494818958580008	-0.4969768312974843	-0.14953264952739645	1.8266980439009266	-0.6348209131349377	-0.15835308707693901	1.7037075577085594	-0.6193695645262449	-0.13850308229966357	1.5766078249819624	-0.6116225885491414	-0.1653341521789628	1.5419398300083051	-0.6428468487118882	-0.1501227935379629	1.5515754075396584	-0.6592801517149531	-0.13442077664309654	1.567844832091746	-0.6060918157371386	-0.16578155254015428	1.9809849083227795	-0.6088821112255627	-0.21039619611581944	2.0250508452340354	-0.6392267396196393	-1.782906270768084	1.8893981896584178	1.232583177608881	-0.20076652425991037	1.9004568349388964	-0.4840857328283455	-0.22714043228607472	1.860623480030241	-0.545474540735286	-0.139830736716754	1.9856438698375702	-0.689756384251299	-0.1542739519642563	1.9173186890773215	-0.7083751304879076	-0.1826816975985766	1.9748377779417121	-0.6804291755255609
27	0.9	-0.16407144313203834	1.823754054935153	-0.5847200222530597	-0.1810168293260102	1.8217920643529728	-0.5271782759267137	-0.1988017577870918	1.6914000242498504	-0.5306993731587637	-0.1944568297076122	1.562590457139861	-0.5086936246511343	-0.23535861277255646	1.530329025651662	-0.5330272240615175	-0.2287711178989502	1.535217791292669	-0.5009727569185167	-0.1807365684848161	1.549515539756741	-0.5003629297178064	-0.14308333033136264	1.8257712499594128	-0.6417026589307019	-0.14916155974222803	1.6982103819821845	-0.6324970116926512	-0.1406579243613107	1.5738115494035916	-0.6090537423799509	-0.16612365989444577	1.5419566876154616	-0.6460967367406559	-0.1484763670848222	1.550005145035584	-0.6648979410652809	-0.13523339263135178	1.5664959865457662	-0.6095045864155375	-0.16229600863839774	1.9826408961855342	-0.6166952630424732	-0.20653279302105257	2.0221249635375074	-0.6350530435563253	-1.773118445349279	1.8893575819305808	1.215185199853854	-0.2041892350187555	1.8996462249887567	-0.5057734603458973	-0.2206164327650018	1.9062078603930503	-0.5585142459021126	-0.13752850564506464	1.9843354255987475	-0.6919720750023096	-0.1516139236205232	1.918154784324892	-0.7195989802516136	-0.1833109650626744	1.9711085361318843	-0.6801232731588897
28	0.9333333333333333	-0.1551880443129506	1.8267472191174894	-0.5945505708988099	-0.174423413242612	1.8249599980982305	-0.5346073733163158	-0.19269346561825654	1.6960725344120968	-0.5380967723577549	-0.1913222284248177	1.5628363015734055	-0.498408609770806	-0.22967039537914738	1.5314261793641022	-0.5255272661092015	-0.2287711178989502	1.535217791292669	-0.5009727569185167	-0.18022079748677408	1.5523792398082228	-0.49637803114084045	-0.13637005963846888	1.8273396847057455	-0.6490255151617035	-0.14710133504390613	1.6994557126990344	-0.6348727448530721	-0.13909497778853014	1.5712064291661723	-0.6100878869837316	-0.16841186080687812	1.541965416786205	-0.6438733581413093	-0.15085076735884187	1.5471641346948586	-0.6622073432514404	-0.13377301552756005	1.5625162834389312	-0.609697327153324	-0.16086955341173514	1.9840969583370711	-0.6222487867925236	-0.2035943060498163	2.0231076100848657	-0.6345713158119631	-1.7725798101966281	1.889365503522556	1.2146707053161927	-0.20331181487846534	1.9008442376890506	-0.5115474350391643	-0.21409243324392893	1.9517922407558599	-0.5715539510689392	-0.13467440639384873	1.987105821312291	-0.7030075545953525	-0.1448702612666582	1.917248765277088	-0.7263802427881729	-1.3947326712250354	1.8737682698551839	0.594283045957323
